<svg width="147" height="140" xmlns="http://www.w3.org/2000/svg">
  <g fill="none" fill-rule="evenodd">
    <path d="M45 96.2c5.2 6.6 14.8 9.8 28.8 9.8 12.7 0 22.3-3.2 28.8-9.8V45.5C99.6 37.9 90 34 73.8 34S48.1 38 45 45.5v50.7z" stroke="#E34B71" stroke-width="5"/>
    <path d="M45 48.2c5.2 6.6 14.8 9.8 28.8 9.8 12.7 0 22.3-3.2 28.8-9.8" stroke="#E34B71" stroke-width="5"/>
    <path d="M63.4 71.9h-1.2c-.2 0-.4 0-.6.2l-.3.4-.2.7v5.2a3.6 3.6 0 0 1-.9 2.4 2.6 2.6 0 0 1-1.2.8l.5.2c.3.1.5.3.7.6l.6 1c.2.3.3.8.3 1.5V90l.2.6c0 .2.2.4.3.5l.6.2h1.2v1.4h-1.7c-.3 0-.6 0-.9-.2-.3-.1-.6-.3-.8-.6-.3-.2-.5-.6-.6-1-.2-.4-.3-.8-.3-1.3v-4.4l-.1-1.1-.5-1a2 2 0 0 0-.6-.5l-.7-.2v-1.6c.2 0 .5 0 .7-.2l.6-.6c.2-.2.4-.5.5-.9L59 78v-4.4c0-.5.1-1 .3-1.4.1-.3.3-.7.6-1l.8-.5c.3-.2.6-.2 1-.2h1.6v1.4zM66 85.3h2.6V88H66v-2.7zm6.7 0h2.6V88h-2.6v-2.7zm6.6 0H82V88h-2.7v-2.7zm5.3 6h1.2c.2 0 .4 0 .6-.2l.3-.5.2-.6v-5.1a3.6 3.6 0 0 1 .9-2.4 2.6 2.6 0 0 1 1.2-.9l-.5-.2c-.3-.1-.5-.3-.7-.6l-.6-1a4 4 0 0 1-.3-1.4V74v-.8l-.2-.6c0-.2-.2-.4-.3-.5a.9.9 0 0 0-.6-.2h-1.2v-1.4h1.7c.3 0 .6 0 .9.2.3.1.6.3.8.6.3.2.5.6.6 1 .2.3.3.8.3 1.3V78L89 79l.5 1 .6.5.7.2v1.6l-.7.2a2 2 0 0 0-.6.6 3 3 0 0 0-.5.9l-.1 1.1v4.4c0 .5-.1 1-.3 1.3-.1.4-.3.8-.6 1-.2.3-.5.5-.8.6-.3.2-.6.2-1 .2h-1.6v-1.4z" fill="#E34B71"/>
    <path d="M137.4 52.1C98.1-28 31 15.7 22.3 33.4l12.2 6.1-25 8.7L.7 22.7l12.6 6.4c27.1-38.5 104-43.5 124.1 23zM9.7 88c39.3 80.2 106.4 36.4 115.2 18.7l-12.3-6.1 25-8.7 8.8 25.5-12.6-6.4c-27.1 38.5-104 43.5-124.1-23z" fill="#9C70B2"/>
  </g>
</svg>
